<?xml version="1.0" encoding="utf-8"?>
<!-- Generator: Adobe Illustrator 19.2.1, SVG Export Plug-In . SVG Version: 6.00 Build 0)  -->
<svg version="1.1" id="Layer_1" xmlns="http://www.w3.org/2000/svg" xmlns:xlink="http://www.w3.org/1999/xlink" x="0px" y="0px"
	 viewBox="0 0 149.2 172.2" style="enable-background:new 0 0 149.2 172.2;" xml:space="preserve">
<style type="text/css">
	.st0{fill:#333333;}
</style>
<path class="st0" d="M128,19.3H61.2c-29.4,0-53.4,24-53.4,53.4v66.8c0,7.3,6,13.4,13.4,13.4H88c29.4,0,53.4-24,53.4-53.4V32.7
	C141.4,25.3,135.4,19.3,128,19.3z M66.9,106.3c0,22.7-13.3,28.7-28.7,28.7h-8.5c-2.3,0-4.1-1.8-4.1-4.1V125c0-2.3,1.8-4.1,4.1-4.1
	h9.9c14.3,0,13.2-15.4,13.2-20.2V59.4c0-2.3,1.9-4.1,4.1-4.1h5.8c2.3,0,4.1,1.8,4.1,4.1l0,2.2V106.3z M66.9,46.4
	c0,2.7-2.2,4.9-4.9,4.9h-4.3c-2.7,0-4.9-2.2-4.9-4.9v-4.3c0-2.7,2.2-4.9,4.9-4.9H62c2.7,0,4.9,2.2,4.9,4.9V46.4z M120,86.9
	c-1,2.3-2.6,4.2-4.6,5.9c-2,1.7-4.6,2.9-7.6,3.9c-3,0.9-6.5,1.4-10.5,1.4c-3.2,0-6.3-0.4-9.3-1.2c-3-0.8-5.7-2-8-3.7
	c-2.3-1.7-4.1-3.8-5.5-6.4c-0.6-1.1-1-2.3-1.3-3.6c-0.7-2.9,1.5-5.7,4.4-5.7H81c2.1,0,3.9,1.3,4.4,3.3c0.2,0.6,0.4,1.1,0.6,1.7
	c0.7,1.4,1.6,2.5,2.8,3.3c1.2,0.8,2.5,1.5,4.1,1.9c1.6,0.4,3.2,0.6,4.9,0.6c1.1,0,2.4-0.1,3.7-0.3c1.3-0.2,2.5-0.6,3.7-1.1
	c1.1-0.5,2.1-1.3,2.9-2.2c0.8-0.9,1.1-2.2,1.1-3.6c0-1.6-0.5-2.9-1.5-3.8c-1-1-2.3-1.8-3.9-2.4c-1.6-0.7-3.5-1.2-5.5-1.7
	c-2.1-0.5-4.2-1-6.3-1.6c-2.2-0.5-4.3-1.2-6.4-2c-2.1-0.8-3.9-1.8-5.5-3.1c-1.6-1.2-2.9-2.8-3.9-4.7c-1-1.9-1.5-4.1-1.5-6.8
	c0-3,0.6-5.6,1.9-7.8c1.3-2.2,2.9-4,5-5.5c2.1-1.5,4.4-2.6,7-3.3c2.6-0.7,5.2-1.1,7.8-1.1c3,0,6,0.3,8.8,1c2.8,0.7,5.3,1.8,7.5,3.3
	c2.2,1.5,3.9,3.5,5.2,5.8c0.5,0.8,0.8,1.8,1.1,2.7c0.9,2.9-1.3,5.9-4.4,5.9H111c-2,0-3.7-1.2-4.3-3.1c-0.1-0.4-0.3-0.8-0.5-1.2
	c-0.6-1.1-1.5-2-2.5-2.7c-1-0.7-2.2-1.1-3.5-1.4c-1.3-0.3-2.8-0.4-4.4-0.4c-1,0-2.1,0.1-3.1,0.3c-1,0.2-2,0.6-2.8,1.1
	c-0.8,0.5-1.5,1.2-2.1,2c-0.5,0.8-0.8,1.8-0.8,3.1c0,1.1,0.2,2.1,0.7,2.8c0.4,0.7,1.3,1.4,2.6,2c1.3,0.6,3,1.2,5.3,1.8
	c2.3,0.6,5.2,1.4,8.8,2.3c1.1,0.2,2.6,0.6,4.5,1.2c1.9,0.6,3.8,1.5,5.7,2.7c1.9,1.2,3.5,2.9,4.9,5c1.4,2.1,2.1,4.8,2.1,8
	C121.6,82.2,121.1,84.7,120,86.9z"/>
</svg>
