<?xml version="1.0" encoding="utf-8"?>
<!-- Generator: Adobe Illustrator 19.2.1, SVG Export Plug-In . SVG Version: 6.00 Build 0)  -->
<svg version="1.1" id="Layer_1" xmlns="http://www.w3.org/2000/svg" xmlns:xlink="http://www.w3.org/1999/xlink" x="0px" y="0px"
	 viewBox="0 0 149.2 172.2" style="enable-background:new 0 0 149.2 172.2;" xml:space="preserve">
<style type="text/css">
	.st0{fill:#9860A7;}
</style>
<g>
	<path class="st0" d="M92.1,53.2c-15,0-21.5,11.5-21.5,27.6c0,16.2,7.1,28.4,21.7,28.4c16,0,21.6-13.3,21.6-28.1
		C114,65.5,107.5,53.2,92.1,53.2z"/>
	<path class="st0" d="M139.2,13H40C18,13,0,31,0,53v99.2c0,5.5,4.5,10,10,10h99.2c22,0,40-18,40-40V23C149.2,17.5,144.7,13,139.2,13
		z M45.9,121.3c0,17.8-3.6,26.3-20.6,26.3c-1.1,0-2.6-0.1-3.8-0.1c-0.8,0-1.4-0.7-1.4-1.5v-10.7c0-0.9,0.7-1.5,1.5-1.5c0,0,0,0,0,0
		c5.5,0,7.1-2.2,7.1-8.9V62c0-0.8,0.7-1.5,1.5-1.5h14.2c0.8,0,1.5,0.7,1.5,1.5V121.3z M45.9,48.8c0,0.8-0.7,1.5-1.5,1.5H30.2
		c-0.8,0-1.5-0.7-1.5-1.5V36.5c0-0.8,0.7-1.5,1.5-1.5h14.2c0.8,0,1.5,0.7,1.5,1.5V48.8z M91.8,123.8c-26,0-39.6-18.8-39.6-42.6
		c0-24,15-42.5,40.7-42.5c24.2,0,39.6,16.9,39.6,42.2C132.5,104,118.7,123.8,91.8,123.8z"/>
</g>
</svg>
