<?xml version="1.0" encoding="utf-8"?>
<!-- Generator: Adobe Illustrator 19.2.1, SVG Export Plug-In . SVG Version: 6.00 Build 0)  -->
<svg version="1.1" id="Layer_1" xmlns="http://www.w3.org/2000/svg" xmlns:xlink="http://www.w3.org/1999/xlink" x="0px" y="0px"
	 viewBox="0 0 149.2 172.2" style="enable-background:new 0 0 149.2 172.2;" xml:space="preserve">
<style type="text/css">
	.st0{fill:#9860A7;}
</style>
<g>
	<path class="st0" d="M93.4,55.2c-13.6,0-19.5,10.5-19.5,25c0,14.7,6.4,25.8,19.7,25.8c14.5,0,19.6-12.1,19.6-25.5
		C113.2,66.3,107.4,55.2,93.4,55.2z"/>
	<path class="st0" d="M134.2,13H60C27,13,0,40,0,73v74.2c0,8.2,6.8,15,15,15h74.2c33,0,60-27,60-60V28C149.2,19.7,142.5,13,134.2,13
		z M51.5,116.9c0,16.1-3.3,23.8-18.7,23.8c-0.6,0-1.2,0-1.9,0c-1.6-0.1-2.9-1.4-2.9-3V128c0.4,0.1,1,0.1,1.4,0.1c5,0,6.4-2,6.4-8.1
		V64.7c0-1.7,1.4-3,3-3h9.6c1.7,0,3,1.4,3,3V116.9z M51.5,49.5c0,1.7-1.4,3-3,3h-9.6c-1.7,0-3-1.4-3-3v-7.9c0-1.7,1.4-3,3-3h9.6
		c1.7,0,3,1.4,3,3V49.5z M93.1,119.2c-23.6,0-35.9-17.1-35.9-38.6C57.2,58.8,70.8,42,94.1,42c22,0,35.9,15.4,35.9,38.3
		C130,101.2,117.5,119.2,93.1,119.2z"/>
</g>
</svg>
