<svg id="Layer_2" data-name="Layer 2" xmlns="http://www.w3.org/2000/svg" viewBox="0 0 60 60"><defs><style>.cls-1{fill:#684e9d;}.cls-2{fill:#715aaf;}.cls-3{fill:#7d6ac4;}.cls-4{fill:#f2f2f2;}</style></defs><title>com.lifx.lifx</title><path class="cls-1" d="M20,21.09V16.25a2.5,2.5,0,0,1,1.9-2.43l15-3.74A2.5,2.5,0,0,1,40,12.51v4.83a2.5,2.5,0,0,1-1.9,2.43l-15,3.75A2.5,2.5,0,0,1,20,21.09Z"/><path class="cls-2" d="M20,32.54V27.71a2.49,2.49,0,0,1,1.9-2.43l15-3.75A2.5,2.5,0,0,1,40,24v4.83a2.49,2.49,0,0,1-1.9,2.43L23.11,35A2.5,2.5,0,0,1,20,32.54Z"/><path class="cls-3" d="M20,43.79V39a2.49,2.49,0,0,1,1.9-2.43l15-3.75A2.5,2.5,0,0,1,40,35.21V40a2.49,2.49,0,0,1-1.9,2.43l-15,3.75A2.5,2.5,0,0,1,20,43.79Z"/><path class="cls-4" d="M33.76,45l-8,2A1,1,0,0,0,25,48v1a1,1,0,0,0,1,1h8a1,1,0,0,0,1-1V46A1,1,0,0,0,33.76,45Z"/></svg>