<svg id="Layer_2" data-name="Layer 2" xmlns="http://www.w3.org/2000/svg" xmlns:xlink="http://www.w3.org/1999/xlink" viewBox="0 0 60 60"><defs><style>.cls-1{fill:none;}.cls-2{fill:#cc2f42;}.cls-3{clip-path:url(#clip-path);}.cls-4{opacity:0.1;}</style><clipPath id="clip-path"><path class="cls-1" d="M24.74,15.05,11,39.2a6,6,0,0,0,5.25,9H43.8a6,6,0,0,0,5.25-9L35.26,15.05A6.06,6.06,0,0,0,24.74,15.05Z"/></clipPath></defs><title>com.asana.Asana</title><path class="cls-2" d="M24.74,15.05,11,39.2a6,6,0,0,0,5.25,9H43.8a6,6,0,0,0,5.25-9L35.26,15.05A6.06,6.06,0,0,0,24.74,15.05Z"/><g class="cls-3"><circle class="cls-4" cx="30" cy="32" r="20"/><circle class="cls-4" cx="30" cy="32" r="15"/><circle class="cls-4" cx="30" cy="32" r="10"/><circle class="cls-4" cx="30" cy="32" r="5"/></g></svg>